<?xml version="1.0" standalone="no"?>
<!DOCTYPE svg PUBLIC "-//W3C//DTD SVG 20010904//EN"
 "http://www.w3.org/TR/2001/REC-SVG-20010904/DTD/svg10.dtd">
<svg version="1.0" xmlns="http://www.w3.org/2000/svg"
 width="800.000000pt" height="800.000000pt" viewBox="0 0 800.000000 800.000000"
 preserveAspectRatio="xMidYMid meet">
<metadata>
Created by potrace 1.11, written by Peter Selinger 2001-2013
</metadata>
<g transform="translate(0.000000,800.000000) scale(0.100000,-0.100000)"
fill="#000000" stroke="none">
<path d="M2740 6454 c-41 -8 -88 -16 -105 -19 -143 -24 -307 -80 -465 -159
-281 -142 -528 -380 -688 -661 -100 -177 -182 -424 -206 -620 -16 -126 -18
-159 -18 -264 0 -123 12 -278 27 -331 2 -8 7 -31 10 -50 40 -237 181 -543 339
-735 146 -179 322 -325 516 -427 155 -82 377 -158 510 -175 19 -2 41 -6 48 -9
72 -24 464 -23 582 1 13 2 41 7 62 10 85 13 213 51 363 109 43 17 150 72 217
112 l56 34 338 -2 339 -3 1 -600 c1 -544 4 -657 19 -735 3 -14 7 -43 10 -65 7
-56 41 -184 70 -262 121 -321 357 -555 673 -668 161 -57 297 -79 487 -79 240
1 453 39 701 124 94 33 274 118 311 148 l22 17 -25 115 c-13 63 -31 149 -40
190 -19 89 -13 64 -59 280 -21 96 -40 187 -42 202 -6 34 -11 34 -109 2 -431
-141 -616 -161 -785 -86 -105 46 -184 167 -204 312 -5 33 -9 958 -6 1093 1 16
34 17 554 17 l554 0 0 480 0 480 -21 1 c-12 0 -261 1 -553 0 l-533 0 0 22 c-1
12 -1 237 -1 500 0 388 -3 478 -13 474 -16 -6 -157 -49 -171 -53 -5 -1 -30 -9
-55 -17 -25 -8 -119 -38 -210 -67 -91 -28 -176 -55 -190 -60 -14 -5 -86 -27
-160 -50 -74 -23 -155 -48 -180 -56 l-45 -14 0 -331 c0 -214 -3 -333 -10 -338
-5 -4 -208 -7 -450 -7 l-440 1 -24 -45 c-101 -191 -268 -327 -476 -389 -146
-43 -341 -48 -495 -12 -379 87 -635 396 -678 817 -31 314 56 607 243 813 117
127 320 233 498 259 109 15 307 7 397 -16 224 -58 395 -190 506 -389 l29 -53
437 0 436 0 -5 23 c-27 123 -116 328 -201 465 -65 104 -116 168 -227 286 -93
98 -265 221 -410 294 -84 42 -253 108 -298 116 -15 2 -30 7 -34 9 -5 3 -62 15
-128 28 -147 27 -472 35 -595 13z"/>
</g>
</svg>
